<svg xmlns="http://www.w3.org/2000/svg" version="1.1" xmlns:xlink="http://www.w3.org/1999/xlink" width="1000" height="1000"><metadata><rdf:RDF xmlns:rdf="http://www.w3.org/1999/02/22-rdf-syntax-ns#" xmlns:dc="http://purl.org/dc/elements/1.1/"><rdf:Description><dc:creator>RealFaviconGenerator</dc:creator><dc:source>https://realfavicongenerator.net</dc:source></rdf:Description></rdf:RDF></metadata><style>
    #light-icon {
      display: inline;
    }
    #dark-icon {
      display: none;
    }

    @media (prefers-color-scheme: dark) {
      #light-icon {
        display: none;
      }
      #dark-icon {
        display: inline;
      }
    }
  </style><g id="light-icon"><svg xmlns="http://www.w3.org/2000/svg" version="1.1" xmlns:xlink="http://www.w3.org/1999/xlink" width="1000" height="1000"><g><g transform="matrix(0.6640106241699867,0,0,0.6640106241699867,0,0)"><svg xmlns="http://www.w3.org/2000/svg" width="1506" height="1506" viewBox="0 0 1506 1506" role="img" aria-label="Vector logo"><path fill="#1C1C1C" d="
    M1081 224 L889 295 L939 329 L709 722 L395 724 L19 1385 L167 1385 L471 852 L785 850 L1045 397 L1096 425 Z
    M1055 664 L866 990 L559 990 L325 1388 L477 1388 L631 1116 L941 1116 L1131 795 Z
    M1206 932 L1024 1258 L714 1258 L639 1387 L1098 1387 L1282 1063 Z
    M748 126 L487 583 L631 583 L819 255 Z
    M1256 1383 L1471 1384 L1363 1202 Z
  "></path></svg></g></g></svg></g><g id="dark-icon"><svg xmlns="http://www.w3.org/2000/svg" version="1.1" xmlns:xlink="http://www.w3.org/1999/xlink" width="1000" height="1000"><g><g transform="matrix(0.6640106241699867,0,0,0.6640106241699867,0,0)"><svg xmlns="http://www.w3.org/2000/svg" width="1506" height="1506" viewBox="0 0 1506 1506" role="img" aria-label="Vector logo"><path fill="#FFFFFF" d="
    M1081 224 L889 295 L939 329 L709 722 L395 724 L19 1385 L167 1385 L471 852 L785 850 L1045 397 L1096 425 Z
    M1055 664 L866 990 L559 990 L325 1388 L477 1388 L631 1116 L941 1116 L1131 795 Z
    M1206 932 L1024 1258 L714 1258 L639 1387 L1098 1387 L1282 1063 Z
    M748 126 L487 583 L631 583 L819 255 Z
    M1256 1383 L1471 1384 L1363 1202 Z
  "></path></svg></g></g></svg></g></svg>